<?xml version="1.0" encoding="utf-8"?>
<!-- Generator: Adobe Illustrator 25.4.0, SVG Export Plug-In . SVG Version: 6.00 Build 0)  -->
<svg version="1.1" id="ee6a9bdc-fb2a-43e1-99e7-a1a995f9e36e"
	 xmlns="http://www.w3.org/2000/svg" xmlns:xlink="http://www.w3.org/1999/xlink" x="0px" y="0px" viewBox="0 0 360 640"
	 style="enable-background:new 0 0 360 640;" xml:space="preserve">
<style type="text/css">
	.st0{fill:#00878D;}
	.st1{fill:#FFFFFF;}
</style>
<g>
	<rect class="st0" width="360" height="640"/>
	<polygon class="st1" points="243.6,297.6 115.3,297.6 115.3,169.2 243.6,169.2 243.6,194.4 256.6,194.4 256.6,156.2 102.3,156.2 
		102.3,310.6 256.6,310.6 256.6,270.5 243.6,270.5 	"/>
	<path class="st1" d="M193.4,220.2h4.5c2.1,0,3,1.5,3.4,3.4h6.7c-0.5-5.5-4.5-9.7-10.1-9.7h-4.6c-5.9,0-10.6,4.8-10.6,10.7v15.3
		c0,5.9,4.8,10.6,10.6,10.6h4.6c5.6,0,9.6-4.2,10.1-9.6h-6.8c-0.4,1.9-1.3,3.2-3.4,3.2h-4.5c-2.5,0-4.1-2.1-4.1-4.6v-14.6
		C189.3,222.3,190.9,220.2,193.4,220.2z"/>
	<path class="st1" d="M222.8,213.8c-5.9,0-10.6,4.8-10.6,10.7v15.3c0,5.9,4.8,10.6,10.6,10.6h4.2c5.9,0,10.6-4.7,10.6-10.6
		c0,0,0,0,0,0v-15.3c0-5.9-4.7-10.6-10.6-10.7c0,0,0,0,0,0H222.8z M231,224.8v14.6c0,2.5-1.6,4.6-4.1,4.6h-4.1
		c-2.5,0-4.1-2.1-4.1-4.6v-14.6c0-2.5,1.6-4.6,4.1-4.6h4.1C229.4,220.2,231,222.3,231,224.8L231,224.8z"/>
	<path class="st1" d="M259.4,213.8h-16.7v36.6h16.7c4.8,0,8.7-4.3,8.7-9.7v-17.2C268.1,218.1,264.2,213.8,259.4,213.8z M261.4,239.6
		c0.1,2.1-1.5,3.9-3.6,4h-8.3v-23.1h8.3c2.1,0.1,3.7,1.9,3.6,4V239.6z"/>
	<polygon class="st1" points="273.3,250.4 298.5,250.4 298.5,244.2 280.2,244.2 280.2,235.1 298.5,235.1 298.5,229 280.2,229 
		280.2,220 298.5,220 298.5,213.8 273.3,213.8 	"/>
	<rect x="303.7" y="245.4" class="st1" width="6.4" height="6.2"/>
</g>
</svg>
