<svg id="a126766a-2545-404b-965f-4b5072ad9b9a" data-name="레이어 1" xmlns="http://www.w3.org/2000/svg" viewBox="0 0 408.9 408.77"><path d="M47.37,543.81c3.29-11.45,6-23.12,10-34.31a199.15,199.15,0,0,1,39.2-65.23,206,206,0,0,1,87.2-58.4c.83-.29,1.62-.72,2.74-1.23-28-22.53-43.09-51.39-43.15-87.15-.05-29.67,10.84-55.37,31.82-76.39,42.22-42.32,109.72-42.24,153.09-.37,40.93,39.51,48,118.23-10.78,163.9,7.5,3.12,15,6.07,22.4,9.34s11.32,10.46,9.88,17.69c-2,10.2-12.06,15.46-22,11.77-10.83-4-21.49-8.72-32.63-11.53-42.71-10.79-83.94-6-123.18,14-34,17.32-59.57,43.33-77.07,77.19a168,168,0,0,0-15.1,43.13,16.26,16.26,0,0,0,13.55,19.61,37.17,37.17,0,0,0,6,.34q95.22,0,190.44.06a25,25,0,0,1,8.6,1.17c6.31,2.36,9.69,7.28,10.16,14a15.72,15.72,0,0,1-9.09,15.15c-1.19.56-2.41,1.06-3.61,1.58H89.7a9.53,9.53,0,0,0-1.77-.72c-15.68-2.8-27.45-11.19-34.78-25.23-2.64-5.08-3.89-10.89-5.78-16.37Zm127.8-246c-.09,41.5,34.28,76.6,75.08,76.68,43.53.09,78-33.57,78.25-76.3.2-42.14-34.24-76.79-76.48-76.94S175.27,255.55,175.17,297.77Z" transform="translate(-47.37 -189.34)"/><path d="M364.45,538.22h-4.51c-12.64,0-25.29,0-37.93,0-10.21,0-17.33-6.53-17.43-15.78-.11-9.41,7.09-16.11,17.48-16.14,14,0,27.91,0,42.39,0h36.4c12.64,0,25.29,0,37.93,0,10.39,0,17.59,6.73,17.49,16.14-.1,9.25-7.23,15.75-17.43,15.78-14,0-27.93,0-42.44,0" transform="translate(-47.37 -189.34)"/></svg>