<svg id="a39497fa-c56e-4203-aa63-2b256c36bde9" data-name="레이어 1" xmlns="http://www.w3.org/2000/svg" viewBox="0 0 383.34 383.35"><path d="M-136.09,439.09c6.35,2.86,8.39,7.78,8.37,14.66-.17,61.88-.08,123.75-.16,185.63a8.2,8.2,0,0,0,3,6.68c29.46,27.21,40.07,60.76,30.2,99.4-9.93,38.86-34.81,64.48-74.29,74.14-48.92,12-99.31-14.93-117.47-62.14-1-2.51-2.11-3.31-4.77-3.3-27,.11-53.9.07-80.84.06-9,0-13.26-4.31-13.26-13.32q0-143.34-.1-286.68c0-7,1.89-12.07,8.29-15.13Zm-226.49,22.55V731.53h69.64c-2.74-38.53,11.09-69.57,42.18-91.89s64.87-25.53,100.18-10.72V461.64Zm170.45,338.24c43,0,79-35.16,78.38-77.78-.68-49.66-36.87-78.86-78.26-79-40.51-.1-77.8,28.08-78.61,79C-271.29,764.69-235.09,799.89-192.13,799.88Z" transform="translate(474.43 -439.09)"/><path d="M-474.43,505a23.08,23.08,0,0,0,.77-2.4,33.94,33.94,0,0,1,36-26.69,33.5,33.5,0,0,1,30.57,33q.19,90.51,0,181a19.49,19.49,0,0,1-1.7,7.17c-6.85,16.69-13.89,33.31-20.75,50-2.08,5.08-5.32,8.49-11,8.53-5.9,0-9.17-3.51-11.31-8.7-7.44-18.06-15-36.06-22.54-54.08Zm22.77,36.85V679.18h22V541.81ZM-429.51,519c0-3.62.13-6.84,0-10.06A10.91,10.91,0,0,0-440,498.3a10.65,10.65,0,0,0-11.55,8.9c-.57,3.83-.11,7.82-.11,11.84Zm-11.15,196.22c2-5,3.69-8.92,5.46-13.21h-11Z" transform="translate(474.43 -439.09)"/><path d="M-256.66,506.46q-35.71,0-71.42,0c-8.83,0-14.23-7-11.59-14.9,1.45-4.32,4.63-6.65,9-7.41a12.84,12.84,0,0,1,2.24-.12h143.59c4.4,0,8.09,1.44,10.42,5.38,4.61,7.79-.76,16.95-10.1,17-13,.13-25.93,0-38.89,0Z" transform="translate(474.43 -439.09)"/><path d="M-256.64,551.37q-35.72,0-71.42,0c-8.84,0-14.25-7-11.61-14.88,1.5-4.47,4.8-6.82,9.38-7.46a21.25,21.25,0,0,1,3-.09q70.86,0,141.72,0c5,0,9.13,1.32,11.52,6,4,7.81-1.34,16.31-10.41,16.4-12.59.12-25.18,0-37.77,0Z" transform="translate(474.43 -439.09)"/><path d="M-256.2,596.28q-35.9,0-71.8,0c-8.87,0-14.28-6.93-11.68-14.83,1.47-4.48,4.76-6.84,9.33-7.51a19.84,19.84,0,0,1,3-.1q70.86,0,141.72,0c4.95,0,9.14,1.28,11.56,6,4,7.8-1.28,16.35-10.33,16.46-11,.13-21.93,0-32.9,0Z" transform="translate(474.43 -439.09)"/><path d="M-311.33,641.19c-5.73,0-11.45.07-17.18,0-7-.1-11.85-4.79-11.82-11.27s4.88-11.11,11.92-11.15q17.18-.1,34.35,0c6.83,0,11.94,4.94,11.9,11.26s-5.12,11.1-12,11.16C-299.88,641.24-305.61,641.2-311.33,641.19Z" transform="translate(474.43 -439.09)"/><path d="M-180.32,770.19c0,2,.11,4,0,6A11.45,11.45,0,0,1-191.59,787a10.93,10.93,0,0,1-11-11.27c.2-4.35-1.09-6.36-5.18-8.2-10.47-4.72-16.43-13.08-17-24.8A11.14,11.14,0,0,1-215.11,731a11.18,11.18,0,0,1,12.38,8.47q2.59,11.3,14.34,9.42c4.2-.67,6.66-2.74,7.07-6.09.45-3.73-1.81-5.9-4.82-7.18-4.58-2-9.36-3.42-13.94-5.34a87.8,87.8,0,0,1-12.1-5.78c-9.56-5.88-13.93-14.66-13.22-25.86.73-11.35,6.39-19.59,16.61-24.29,3.52-1.62,4.91-3.21,4.89-7.21A11.06,11.06,0,0,1-189,656.24a10.48,10.48,0,0,1,7.32,10.61c-.24,4.24,1.21,6.09,5.15,7.83,9.93,4.39,15.77,12.28,17,23.27.79,6.95-3.46,12.7-9.93,13.51-6.21.78-11.18-3.77-12.52-10.67-.41-2.1-2.23-5-4-5.56a32.76,32.76,0,0,0-11.6-1.27c-2.81.14-4.87,2.25-5.32,5.43a5.8,5.8,0,0,0,3.68,6.65c5.13,2.23,10.43,4.06,15.56,6.29a83.38,83.38,0,0,1,12.37,6.06c9,5.86,13.27,14.51,12.44,25.17-.91,11.57-6.68,20.15-17.47,25C-177.61,769.13-178.88,769.6-180.32,770.19Z" transform="translate(474.43 -439.09)"/></svg>